<mxfile host="app.diagrams.net" modified="2023-10-26T16:53:40.363Z" agent="Mozilla/5.0 (Windows NT 10.0; Win64; x64; rv:109.0) Gecko/20100101 Firefox/118.0" version="21.6.8" etag="YOjP0DtTiwoKDvNUmj80" type="github">
  <diagram name="Page-1" id="5WKUiM2Wro95edSZ1Pxd">
    <mxGraphModel>
      <root>
        <mxCell id="0" />
        <mxCell id="1" parent="0" />
      </root>
    </mxGraphModel>
  </diagram>
</mxfile>
